# xmcd
# Track frame offsets:
# 150
# 11597
# 27204
# 43007
# 58227
# 71826
# 87969
# 101852
# 116510
# 133313
# 147453
# 164169
#
# Disc length: 2379 seconds
# Revision: 0
# Processed by: cddbd v1.5.2PL0 Copyright (c) Steve Scherf et al.
# Submitted via: VisiTrax 2.10.3.257 - For more info visit www.synapsa.com
#
DISCID=b809490c
DTITLE=Bernadette and the North - Bernadette
DYEAR=2006
DGENRE=Rock
TTITLE0=Carry On
TTITLE1=Did You Ever
TTITLE2=The One I Want
TTITLE3=Haunted
TTITLE4=Abused
TTITLE5=Stay The Same
TTITLE6=Light Bright
TTITLE7=Waiting
TTITLE8=Overdue
TTITLE9=Fading Fast
TTITLE10=Back Home
TTITLE11=Light Bright (Remix)
EXTD=
EXTT0=
EXTT1=
EXTT2=
EXTT3=
EXTT4=
EXTT5=
EXTT6=
EXTT7=
EXTT8=
EXTT9=
EXTT10=
EXTT11=
PLAYORDER=
